<?xml version="1.0" encoding="UTF-8"?>
<svg width="200px" height="200px" viewBox="0 0 200 200" version="1.1" xmlns="http://www.w3.org/2000/svg" xmlns:xlink="http://www.w3.org/1999/xlink">
    <title>napis3</title>
    <g id="napis3" stroke="none" stroke-width="1" fill="none" fill-rule="evenodd">
        <path d="M191,0.5 C193.071068,0.5 194.946068,1.33946609 196.303301,2.69669914 C197.660534,4.05393219 198.5,5.92893219 198.5,8 L198.5,8 L198.5,192 C198.5,194.071068 197.660534,195.946068 196.303301,197.303301 C194.946068,198.660534 193.071068,199.5 191,199.5 L191,199.5 L7,199.5 C4.92893219,199.5 3.05393219,198.660534 1.69669914,197.303301 C0.339466094,195.946068 -0.5,194.071068 -0.5,192 L-0.5,192 L-0.5,8 C-0.5,5.92893219 0.339466094,4.05393219 1.69669914,2.69669914 C3.05393219,1.33946609 4.92893219,0.5 7,0.5 L7,0.5 Z" id="Rectangle" stroke-opacity="0.5" stroke="#2F5266" fill="#FFFFFF"></path>
        <text id="1" font-family="Poppins-Regular, Poppins" font-size="72" font-weight="normal" line-spacing="26" letter-spacing="2.7" fill="#263137">
            <tspan x="86.5" y="176">1</tspan>
        </text>
    </g>
</svg>